<svg width="1201" height="149" viewBox="0 0 1201 149" fill="none" xmlns="http://www.w3.org/2000/svg">
<path d="M125.983 114.104L71.1169 82.3105C68.5467 80.8236 65.3764 80.8236 62.8115 82.3105L7.90239 114.125C7.15363 114.56 7.15363 115.644 7.90239 116.079L62.8062 147.883C65.3764 149.375 68.552 149.37 71.1222 147.877L125.989 115.994C126.716 115.575 126.716 114.523 125.989 114.104H125.983ZM102.209 115.649L69.4707 134.676C67.936 135.568 66.0455 135.568 64.5108 134.676L31.7512 115.697C31.3051 115.436 31.3051 114.789 31.7512 114.528L64.5161 95.5439C66.0508 94.6571 67.9413 94.6571 69.4707 95.5439L102.209 114.513C102.644 114.762 102.644 115.389 102.209 115.644V115.649Z" fill="white"/>
<path d="M0.010623 36.3448V103.202C0.010623 103.887 0.748763 104.312 1.33821 103.972L60.1823 70.0815C60.6602 69.8054 60.9576 69.2956 60.9576 68.738V57.6553C60.9576 56.6782 59.9008 56.0675 59.0565 56.556L13.3662 82.8529C12.8776 83.1343 12.2722 82.7839 12.2722 82.221V71.2232C12.2722 70.2408 12.798 69.3274 13.6476 68.8335L30.3593 59.1315C30.5664 59.0147 30.6886 58.7917 30.6886 58.558V45.4627C30.6886 45.1972 30.4018 45.0325 30.1735 45.1653L13.5202 54.7399C12.9626 55.0585 12.2669 54.6602 12.2669 54.0177V43.3757C12.2669 42.303 12.8404 41.3153 13.7644 40.7789L59.9805 14.1156C60.5806 13.7705 60.9523 13.1279 60.9523 12.4323V1.50885C60.9523 0.531745 59.8955 -0.0736341 59.0512 0.414919L1.59841 33.5781C0.610688 34.1463 0 35.2031 0 36.3448H0.010623Z" fill="white"/>
<path d="M74.9506 49.6413L84.4827 55.1428C85.0031 55.4455 85.3217 55.9977 85.3217 56.5978V61.7542C85.3217 62.2321 85.5819 62.6729 85.9908 62.9065L120.843 82.9744C121.193 83.1762 121.634 82.9213 121.634 82.5177V70.7499C121.634 70.0012 121.236 69.3055 120.583 68.9338L103.685 59.1893C103.473 59.0671 103.34 58.8388 103.34 58.5945V45.3558C103.34 45.154 103.558 45.0266 103.733 45.1275L120.774 54.9569C121.156 55.18 121.634 54.9038 121.634 54.4577V43.1732C121.634 42.1377 121.082 41.1819 120.184 40.6614L86.575 21.2786C86.0174 20.9547 85.3217 21.3583 85.3217 22.0062V27.6989C85.3217 28.66 84.2809 29.2654 83.4472 28.7822L73.4956 23.047C73.23 22.893 73.0654 22.6115 73.0654 22.3035V1.55598C73.0654 0.557632 74.1487 -0.0689959 75.0143 0.430178L133.481 34.204C133.906 34.4483 134.166 34.8997 134.166 35.3936V103.573C134.166 104.088 133.609 104.407 133.168 104.152L74.0956 70.2083C73.4637 69.8418 73.0707 69.1674 73.0707 68.4399V50.7193C73.0707 49.7528 74.1169 49.1527 74.9506 49.6359V49.6413Z" fill="white"/>
<path d="M178.277 74.9088C178.277 52.7167 194.138 33.2764 227.068 33.2764C259.999 33.2764 270.96 48.6677 270.96 62.9851C270.96 63.4549 270.96 64.1708 270.849 65.2446H255.949C256.061 64.5287 256.061 64.0589 256.061 63.5668C256.061 55.3343 248.545 46.2739 227.426 46.2739C206.308 46.2739 194.988 59.1597 194.988 75.0207C194.988 89.9198 204.765 102.447 227.315 102.447C248.321 102.447 255.591 91.9556 255.591 84.6626V84.3046H223.981V73.9244H271.945V113.163H258.343C258.455 110.054 258.813 103.141 258.947 97.1903H258.835C255.502 108.51 243.802 114.595 225.547 114.595C191.789 114.595 178.3 95.2665 178.3 74.8641L178.277 74.9088Z" fill="white"/>
<path d="M422.569 95.7817H368.521L358.745 113.186H341.452L386.91 34.6865H406.127L451.585 113.186H432.368L422.592 95.7817H422.569ZM416.484 84.9318L395.612 47.9525H395.5L374.628 84.9318H416.507H416.484Z" fill="white"/>
<path d="M522.275 34.7089H538.74V99.719H589.791V113.186H522.275V34.6865V34.7089Z" fill="white"/>
<path d="M660.999 34.7089H677.464V99.719H728.515V113.186H660.999V34.6865V34.7089Z" fill="white"/>
<path d="M799.722 34.708H872.606V47.7056H816.187V68.3539H860.683V79.092H816.187V100.21H873.814V113.208H799.744V34.708H799.722Z" fill="white"/>
<path d="M946.206 34.708H995.601C1021.73 34.708 1031.75 43.6564 1031.75 57.6159C1031.75 66.2063 1027.21 73.5888 1017.08 76.2286V76.4746C1028.29 78.8683 1031.28 86.743 1031.28 96.5191V113.23H1014.95V96.5191C1014.95 87.347 1010.55 82.9175 999.203 82.9175H962.694V113.208H946.228V34.708H946.206ZM997.615 72.0452C1010.61 72.0452 1016.34 67.146 1016.34 59.8754C1016.34 52.6048 1010.37 47.7056 994.259 47.7056H962.649V72.0452H997.592H997.615Z" fill="white"/>
<path d="M1139.56 80.9936L1094.95 34.708H1117.39L1148.89 67.75H1149.24L1180.5 34.708H1200.65L1156.05 80.9936V113.208H1139.58V80.9936H1139.56Z" fill="white"/>
</svg>
